<?xml version="1.0" encoding="utf-8"?>
<!-- Generator: Adobe Illustrator 22.1.0, SVG Export Plug-In . SVG Version: 6.00 Build 0)  -->
<svg version="1.1" id="Layer_1" xmlns="http://www.w3.org/2000/svg" xmlns:xlink="http://www.w3.org/1999/xlink" x="0px" y="0px"
	 viewBox="0 0 256 256" style="enable-background:new 0 0 256 256;" xml:space="preserve">
<style type="text/css">
	.st0{fill:#92E2F4;}
	.st1{fill:none;stroke:#000000;stroke-width:4;stroke-miterlimit:10;}
</style>
<g id="XMLID_1_">
	<g>
		<path class="st0" d="M246.2,234.2c0.1,2.5-0.1,5.1-1.3,7.3c-2.9,5.4-10.3,5.9-16.4,5.7c-10.5-0.3-20.9-0.8-31.4-1.1
			c-15.1-0.5-30.2-0.9-45.4-1c-23.2-0.2-46.5,0-69.7,0.6c-7.9,0.2-15.9,0.4-23.8,0.7c-14.3,0.4-28.6,0.8-42.9-0.5
			c-1-0.1-2-0.2-2.8-0.7c-1-0.6-1.5-1.7-1.9-2.8c-5.4-13.4-1.1-28.5-0.2-43c0.7-10.3-0.5-20.7,0.1-31c0.6-9.6,2.8-19.1,3.2-28.7
			c0.4-9.3-0.9-18.6-1.9-27.9c-0.9-8.7-1.6-17.4-2.2-26.2C7.9,60.3,6.2,34.8,9.9,9.6l1-0.2c47.2,6,95-1,142.5,1.9
			c16.5,1,33.2,3.2,49.5,0.5c11.3-1.9,24-5.8,33.4,0.8c9.3,6.6,10,19.9,9.7,31.4c-0.6,23.2-1.2,46.5-1.8,69.7
			c-0.3,10-0.5,20.1,0.4,30c0.8,7.8,2.2,15.5,1.3,23.3c-0.8,6.6-3.4,12.9-4.4,19.5C239,202.3,245.8,218.2,246.2,234.2z"/>
	</g>
	<g>
		<path class="st1" d="M10.9,9.4c47.2,6,95-1,142.5,1.9c16.5,1,33.2,3.2,49.5,0.5c11.3-1.9,24-5.8,33.4,0.8
			c9.3,6.6,10,19.9,9.7,31.4c-0.6,23.2-1.2,46.5-1.8,69.7c-0.3,10-0.5,20.1,0.4,30c0.8,7.8,2.2,15.5,1.3,23.3
			c-0.8,6.6-3.4,12.9-4.4,19.5c-2.4,15.9,4.4,31.7,4.7,47.8c0.1,2.5-0.1,5.1-1.3,7.3c-2.9,5.4-10.3,5.9-16.4,5.7
			c-10.5-0.3-20.9-0.8-31.4-1.1c-15.1-0.5-30.2-0.9-45.4-1c-23.2-0.2-46.5,0-69.7,0.6c-7.9,0.2-15.9,0.4-23.8,0.7
			c-14.3,0.4-28.6,0.8-42.9-0.5c-1-0.1-2-0.2-2.8-0.7c-1-0.6-1.5-1.7-1.9-2.8c-5.4-13.4-1.1-28.5-0.2-43c0.7-10.3-0.5-20.7,0.1-31
			c0.6-9.6,2.8-19.1,3.2-28.7c0.4-9.3-0.9-18.6-1.9-27.9c-0.9-8.7-1.6-17.4-2.2-26.2C7.9,60.3,6.2,34.8,9.9,9.6"/>
	</g>
</g>
<g>
	<g>
		<path d="M30.2,25.5c-2,1.4-2.6,3.8-1.6,6.1c1.5,3.1,5.1,3.7,8.1,4.2c2.4,0.4,7.5,2.5,9.2-0.1c1.5-2.3,0.6-5.9-0.7-8
			c-1.5-2.4-4.1-4-6.9-4.2c-2.7-0.2-6,0.6-5.8,3.9c0.2,2.6,2.1,5.8,4.7,6.8c0.8,0.3,1.6,0.3,2.4-0.2c0.8-0.6,0.7-2.2,1.2-2.6
			c1.5-1.1,0-3.8-1.5-2.6c-0.6,0.4-1,0.9-1.3,1.6c-0.1,0.2-0.1,0.8-0.2,1c0.2,0,0.3,0,0.5-0.1c-0.6-0.3-1-0.7-1.4-1.2
			c-1.2-1.4-1.9-3.7,0.6-3.7c1.7,0,3.5,0.7,4.7,2.1c0.9,1,1.9,3.3,1.4,4.7c-0.4,1-0.8,0.6-2,0.4c-0.7-0.1-1.4-0.2-2-0.4
			c-1.6-0.3-3.2-0.5-4.7-0.9c-1.2-0.3-5.8-2.4-3.1-4.3C33.2,27,31.8,24.4,30.2,25.5L30.2,25.5z"/>
	</g>
</g>
<g>
	<g>
		<path d="M85,24.1c-2.9,0.7-6,1.6-7.9,3.9c-1.5,1.8-2.2,4.4-1.2,6.6c2,4.6,9.6,4.3,12.1,0.3c1.6-2.6,0.4-5.5-1.3-7.6
			c-1.5-1.8-3.5-3.5-5.3-1.1c-1.3,1.7-3.7,5.2-2.5,7.4c1.4,2.6,4.4,1.1,5.8-0.5c1.2-1.5-0.9-3.6-2.1-2.1c-0.2,0.3-0.6,0.8-0.8,1
			c-0.2,0.3-0.1,0.3,0.1-0.2c0.1-0.4,0.3-0.7,0.5-1c0.4-0.8,1.1-2.6,1.9-3c-0.4,0.1-0.8,0.1-1.2,0.2c0.7,0.2,1.4,1.4,1.8,2
			c0.8,1.2,1.5,2.8,0.2,4c-1.2,1.2-4.1,1.6-5.6,0.6c-1.8-1.2-1-3.6,0.3-4.9c1.6-1.6,4-2,6-2.5C87.7,26.5,86.9,23.6,85,24.1L85,24.1z
			"/>
	</g>
</g>
<g>
	<g>
		<path d="M29.7,70.2c4.9,14.7,19.8,22.2,34.7,22.1c10.5,0,37.2-3.8,32.6-20c-0.2-0.8-1-1.2-1.8-1C88,72.5,82.4,77.1,75,77.8
			c-7.6,0.7-15.3,0.4-22.9,0.5c-1.8,0-4.4,0.4-6-0.3c-3.1-1.4-3.8-4.1-5.2-6.8c-0.9-1.7-1.7-3.5-3.4-4.5c-2.6-1.6-5.7-0.9-7.2,1.6
			c-1,1.6,1.6,3.1,2.6,1.5c2.8-4.5,5.9,4.1,6.3,5c0.4,0.8,0.7,1.6,1.2,2.4c0.9,1.4,2,2.5,3.6,3.1c4.9,2.1,11.9,0.9,17.1,0.8
			c5.9-0.1,11.9,0.2,17.7-0.9c6.1-1.1,11.1-5.1,17.2-6.2c-0.6-0.3-1.2-0.7-1.8-1c4,14.2-24.7,16.8-33.3,16.1
			c-12.3-1-24.2-7.7-28.2-19.8C32,67.6,29.1,68.4,29.7,70.2L29.7,70.2z"/>
	</g>
</g>
<g>
	<g>
		<path d="M90.5,105.9c-1.4,3.4-0.6,7.4,2,10.1c0.5,0.5,1.6,0.6,2.1,0c2.3-2.9,6.4-5.6,5.4-10c-0.7-3-4.2-4.5-6.5-2.4
			c-1.4,1.3,0.7,3.4,2.1,2.1c1-0.9,1.6,1.2,1.6,1.7c-0.1,1-0.6,2-1.3,2.7c-1,1.3-2.4,2.4-3.4,3.7c0.7,0,1.4,0,2.1,0
			c-1.9-1.9-2.3-4.7-1.3-7.1C94.1,104.9,91.2,104.2,90.5,105.9L90.5,105.9z"/>
	</g>
</g>
<g>
	<g>
		<path d="M137.7,103.9c-3.8-1.1-6.1,3.1-5.5,6.3c0.6,2.9,3.6,8.7,7.3,7.7c3.7-0.9,4.9-7.1,5.6-10.2c0.8-3.9-2.5-5.1-5.8-4.2
			c-1.8,0.5-1.1,3.4,0.8,2.9c2.2-0.7,2.1,0.6,1.6,2.4c-0.4,1.4-0.8,3.8-1.8,4.9c-0.2,0.5-0.5,0.8-1.1,0.7c-0.5,0.4-0.9,0.3-1.2-0.3
			c-0.5-0.4-1-1.4-1.4-2c-0.4-0.8-0.9-1.6-1.1-2.4c-0.2-1,0-3.5,1.7-3C138.7,107.3,139.5,104.4,137.7,103.9L137.7,103.9z"/>
	</g>
</g>
<g>
	<g>
		<path d="M91.2,155.7c10.7,0.6,21.4,0.2,32-1.6c5.4-0.9,10.8-2.2,16.2-3c3.3-0.5,6.8-0.9,10.1-0.7c2.4,0.1,2.6-0.2,3.5,2.3
			c0.9,2.4,0.3,3.5-0.9,5.7c-3.2,5.6-10.2,5.2-15.9,5.8c-5.5,0.6-11,1.1-16.6,1.4c-5.8,0.3-11.7,0.3-17.5-0.2
			c-2.7-0.2-6.2-0.1-8.8-1.2c-3.3-1.3-4.5-3-4.7-6.6c0-0.4,0-4.3,0.8-4c1.8,0.6,2.6-2.3,0.8-2.9c-4.9-1.7-4.8,6.5-4.4,9.2
			c1,5.7,5.3,7.1,10.5,7.9c9.7,1.4,19.5,1.2,29.2,0.5c4.6-0.3,9.1-0.8,13.6-1.3c3.1-0.3,6.7-0.4,9.6-1.6c4.3-1.7,7.9-6.9,8.3-11.5
			c0.6-6.3-5.8-6.6-10.5-6.4c-8.5,0.3-16.8,2.6-25.2,3.9c-10,1.6-20.2,1.9-30.3,1.3C89.3,152.6,89.3,155.6,91.2,155.7L91.2,155.7z"
			/>
	</g>
</g>
<g>
	<g>
		<path d="M167,169.9c-3.3,0.3-5.9,3.5-4.3,6.7c1.6,3.2,8,7.5,11.5,7.4c1.9-0.1,2.9-1.3,4-2.7c1.4-1.8,3.9-4.6,4.1-7
			c0.1-1.3-0.6-2.3-1.8-2.8c-3-1.2-6.8,1.1-9.2-2.1c-1.1-1.5-3.7,0-2.6,1.5c1,1.4,2.2,2.4,3.9,2.9c1.5,0.5,5.8-0.1,6.1,0.9
			c0.3,0.9-1.2,2.6-1.7,3.3c-1.3,1.8-1.8,3.2-4.6,2.4c-1-0.3-2-1.1-2.9-1.7c-0.1-0.1-7.3-5.5-2.4-5.9C169,172.7,169,169.7,167,169.9
			L167,169.9z"/>
	</g>
</g>
<g>
	<g>
		<path d="M213.8,171.2c-3.4-0.9-7.8-0.3-8.4,4c-0.5,3.7,2.4,7.7,6,8.7c3.3,0.9,7.1-0.8,8.5-3.9c1.5-3.3,0-7.2-2.9-9.2
			c-1.6-1.1-3.1,1.5-1.5,2.6c3.7,2.4,1.9,8.1-2.6,7.7c-2.1-0.2-3.8-2.2-4.3-4.1c-0.8-3.2,2.2-3.5,4.5-2.9
			C214.9,174.5,215.7,171.7,213.8,171.2L213.8,171.2z"/>
	</g>
</g>
<g>
	<g>
		<path d="M168.7,231c0-7.9,3.1-15.5,8.7-21c6.4-6.3,15.3-8.5,24.1-8.9c7.7-0.3,16.8,0.9,22.1,7.2c2.5,2.9,4,6.8,3.8,10.7
			c-0.3,5.3-6.4,13-10.5,5.9c-1.4-2.4-1.9-5.2-3.6-7.5c-1.6-2.1-3.8-3.8-6-5.2c-4.6-2.8-10.7-4.6-15.9-2.5c-4.5,1.9-6.7,6-8.3,10.4
			c-2.4,6.6-5.9,17.9-15.5,11.8c-1.6-1-3.1,1.6-1.5,2.6c4.3,2.7,9.7,2.7,13.6-0.8c3.9-3.6,4.8-9.2,6.7-13.9c1.7-4.1,4.5-7.7,9.3-8
			c4.7-0.3,9.8,2.2,13.2,5.4c3.9,3.6,4.3,11.5,9.7,13.4c4.7,1.6,9.2-2.7,10.9-6.8c2-5.1,0.7-11.2-2.2-15.7
			c-7.5-11.2-24.4-11.4-36.2-8.6c-14.8,3.5-25.3,16.2-25.3,31.5C165.7,232.9,168.7,232.9,168.7,231L168.7,231z"/>
	</g>
</g>
</svg>
